<?xml version="1.0" encoding="UTF-8"?>
<svg version="1.1" xmlns="http://www.w3.org/2000/svg" width="1355" height="1356">
<path d="M0 0 C79.13177694 -1.77326111 158.83768172 12.17981252 441.25146484 156.06640625 C441.83412109 156.54851562 442.41677734 157.030625 443.01708984 157.52734375 C449.9556105 163.28822558 456.6986657 169.22129206 463.30224609 175.36328125 C465.47250778 177.37512165 467.69443167 179.31516246 469.9375 181.24536133 C474.20137469 184.97176108 478.22705285 188.89729127 482.22412109 192.90625 C482.95086533 193.63203751 483.67760956 194.35782501 484.42637634 195.10560608 C485.9510878 196.62964181 487.47455635 198.15492194 488.99682617 199.68139648 C491.30780376 201.99773088 493.62407255 204.30867703 495.94091797 206.61914062 C497.43147305 208.11035659 498.92171785 209.60188278 500.41162109 211.09375 C501.09410416 211.77420883 501.77658722 212.45466766 502.47975159 213.15574646 C506.93529844 217.63275658 511.13815566 222.27451468 515.25146484 227.06640625 C516.26201822 228.22237398 517.27355837 229.37748077 518.28662109 230.53125 C531.02788601 245.12013403 543.18698463 259.99482274 554.53564453 275.69775391 C556.22510742 278.0300204 557.92789524 280.35196782 559.63427734 282.671875 C566.89212698 292.57291683 573.71350147 302.67783573 580.25146484 313.06640625 C580.7511377 313.85321777 581.25081055 314.6400293 581.765625 315.45068359 C603.3973354 349.54538504 622.21668346 385.57659065 637.25146484 423.06640625 C637.71069336 424.21028809 638.16992188 425.35416992 638.64306641 426.53271484 C669.53448835 504.21460294 686.23028668 587.60013026 686.43896484 677.25390625 C686.4383606 678.2951062 686.43775635 679.33630615 686.43713379 680.40905762 C686.3154815 758.26948697 672.74047693 835.34351864 617.62792969 976.30322266 C616.43334514 978.70129075 615.25403259 981.10576271 614.08349609 983.515625 C592.0332475 1028.67462326 563.73263438 1071.71098264 531.25146484 1110.06640625 C530.56407227 1110.87899902 530.56407227 1110.87899902 529.86279297 1111.70800781 C524.17413745 1118.42121313 518.42703457 1125.07521382 512.5012207 1131.58105469 C511.13748329 1133.08760346 509.78242344 1134.60215492 508.44384766 1136.13110352 C501.59054034 1143.91792646 494.25560945 1151.21374431 486.9128418 1158.53540039 C484.68666622 1160.75619932 482.46590852 1162.98231591 480.24560547 1165.20898438 C478.80907713 1166.64485209 477.37223873 1168.08040968 475.93505859 1169.515625 C475.28274765 1170.16996017 474.63043671 1170.82429535 473.95835876 1171.49845886 C470.09190328 1175.34560043 466.11499021 1179.01111402 461.98348999 1182.57249451 C459.76354619 1184.48724738 457.6025991 1186.46344288 455.43896484 1188.44140625 C451.17401176 1192.2856887 446.80285635 1195.9616753 442.33740234 1199.5703125 C440.10206668 1201.37838781 437.87958279 1203.19753388 435.66552734 1205.03125 C361.25027401 1266.45621518 271.99778839 1310.53614397 -2.74853516 1356.06640625 C-3.46168884 1356.04449219 -4.17484253 1356.02257813 -4.90960693 1356 C-87.42693276 1353.41342334 -169.10456821 1338.34753873 -277.74853516 1293.06640625 C-278.6518457 1292.6590625 -279.55515625 1292.25171875 -280.48583984 1291.83203125 C-332.73872582 1268.16063768 -382.12124244 1235.93154498 -425.67822266 1198.66796875 C-428.42587561 1196.32382924 -431.23653744 1194.06757309 -434.06103516 1191.81640625 C-440.92343401 1186.22887975 -447.27435268 1180.10098712 -453.68896484 1174.01269531 C-456.34635117 1171.50147154 -459.02694689 1169.01588041 -461.70849609 1166.53051758 C-470.0236874 1158.81638612 -478.27066945 1151.08403814 -485.64697266 1142.44921875 C-487.96717261 1139.81850877 -490.36275784 1137.27008566 -492.76977539 1134.71899414 C-498.25660314 1128.90265322 -503.56430583 1123.03767871 -508.55712891 1116.78515625 C-510.53590965 1114.33019833 -512.56697649 1111.93001666 -514.62426758 1109.54077148 C-546.20007888 1072.7930117 -572.47227097 1030.99884267 -594.74853516 988.06640625 C-595.26222656 987.08285156 -595.77591797 986.09929688 -596.30517578 985.0859375 C-633.41089777 913.73244387 -656.56190393 834.2689478 -665.99853516 746.62890625 C-666.0817099 745.82232574 -666.16488464 745.01574524 -666.25057983 744.1847229 C-668.44962059 722.5892417 -668.99253652 701.13291838 -668.99853516 679.44140625 C-668.99897701 678.70892166 -668.99941887 677.97643707 -668.99987411 677.22175598 C-669.00740176 653.38379456 -668.44563143 629.7721208 -665.74853516 606.06640625 C-665.66367859 605.29838684 -665.57882202 604.53036743 -665.49139404 603.73907471 C-656.97705151 526.67903606 -635.37703339 451.88715952 -601.74853516 382.06640625 C-601.26030273 381.05143066 -600.77207031 380.03645508 -600.26904297 378.99072266 C-585.25719379 347.97250167 -567.67729289 318.18271028 -547.74853516 290.06640625 C-547.20600098 289.2986084 -546.6634668 288.53081055 -546.10449219 287.73974609 C-538.93338418 277.61941737 -531.52588086 267.72780402 -523.74853516 258.06640625 C-523.23822754 257.42993164 -522.72791992 256.79345703 -522.20214844 256.13769531 C-510.77687827 241.90213522 -498.97340125 228.15999158 -486.44921875 214.88037109 C-484.29933564 212.5872859 -482.17717908 210.26969678 -480.05615234 207.94995117 C-472.27906802 199.45281348 -464.34750947 191.16309164 -455.57666016 183.67578125 C-453.71915527 182.04054191 -451.98247506 180.33158832 -450.24853516 178.56640625 C-446.5855689 174.85427266 -442.70618915 171.45959743 -438.74853516 168.06640625 C-437.70522135 167.15925086 -436.66228137 166.25166544 -435.61962891 165.34375 C-428.13686943 158.85030535 -420.49808416 152.61459257 -412.66162109 146.55419922 C-410.62109122 144.96729403 -408.59435077 143.36384643 -406.56884766 141.7578125 C-338.65747256 88.09468788 -258.93485228 48.74068653 0 0 Z " fill="#002D65" transform="translate(668.74853515625,-0.06640625)"/>
<path d="M0 0 C79.13177694 -1.77326111 158.83768172 12.17981252 441.25146484 156.06640625 C441.83412109 156.54851562 442.41677734 157.030625 443.01708984 157.52734375 C449.9556105 163.28822558 456.6986657 169.22129206 463.30224609 175.36328125 C465.47250778 177.37512165 467.69443167 179.31516246 469.9375 181.24536133 C474.20137469 184.97176108 478.22705285 188.89729127 482.22412109 192.90625 C482.95086533 193.63203751 483.67760956 194.35782501 484.42637634 195.10560608 C485.9510878 196.62964181 487.47455635 198.15492194 488.99682617 199.68139648 C491.30780376 201.99773088 493.62407255 204.30867703 495.94091797 206.61914062 C497.43147305 208.11035659 498.92171785 209.60188278 500.41162109 211.09375 C501.09410416 211.77420883 501.77658722 212.45466766 502.47975159 213.15574646 C506.93529844 217.63275658 511.13815566 222.27451468 515.25146484 227.06640625 C516.26201822 228.22237398 517.27355837 229.37748077 518.28662109 230.53125 C531.02788601 245.12013403 543.18698463 259.99482274 554.53564453 275.69775391 C556.22510742 278.0300204 557.92789524 280.35196782 559.63427734 282.671875 C566.89212698 292.57291683 573.71350147 302.67783573 580.25146484 313.06640625 C580.7511377 313.85321777 581.25081055 314.6400293 581.765625 315.45068359 C603.3973354 349.54538504 622.21668346 385.57659065 637.25146484 423.06640625 C637.71069336 424.21028809 638.16992188 425.35416992 638.64306641 426.53271484 C669.53448835 504.21460294 686.23028668 587.60013026 686.43896484 677.25390625 C686.4383606 678.2951062 686.43775635 679.33630615 686.43713379 680.40905762 C686.3154815 758.26948697 672.74047693 835.34351864 617.62792969 976.30322266 C616.43334514 978.70129075 615.25403259 981.10576271 614.08349609 983.515625 C592.0332475 1028.67462326 563.73263438 1071.71098264 531.25146484 1110.06640625 C530.56407227 1110.87899902 530.56407227 1110.87899902 529.86279297 1111.70800781 C524.17413745 1118.42121313 518.42703457 1125.07521382 512.5012207 1131.58105469 C511.13748329 1133.08760346 509.78242344 1134.60215492 508.44384766 1136.13110352 C501.59054034 1143.91792646 494.25560945 1151.21374431 486.9128418 1158.53540039 C484.68666622 1160.75619932 482.46590852 1162.98231591 480.24560547 1165.20898438 C478.80907713 1166.64485209 477.37223873 1168.08040968 475.93505859 1169.515625 C475.28274765 1170.16996017 474.63043671 1170.82429535 473.95835876 1171.49845886 C470.09190328 1175.34560043 466.11499021 1179.01111402 461.98348999 1182.57249451 C459.76354619 1184.48724738 457.6025991 1186.46344288 455.43896484 1188.44140625 C451.17401176 1192.2856887 446.80285635 1195.9616753 442.33740234 1199.5703125 C440.10206668 1201.37838781 437.87958279 1203.19753388 435.66552734 1205.03125 C361.25027401 1266.45621518 271.99778839 1310.53614397 -2.74853516 1356.06640625 C-3.46168884 1356.04449219 -4.17484253 1356.02257813 -4.90960693 1356 C-87.42693276 1353.41342334 -169.10456821 1338.34753873 -277.74853516 1293.06640625 C-278.6518457 1292.6590625 -279.55515625 1292.25171875 -280.48583984 1291.83203125 C-332.73872582 1268.16063768 -382.12124244 1235.93154498 -425.67822266 1198.66796875 C-428.42587561 1196.32382924 -431.23653744 1194.06757309 -434.06103516 1191.81640625 C-440.92343401 1186.22887975 -447.27435268 1180.10098712 -453.68896484 1174.01269531 C-456.34635117 1171.50147154 -459.02694689 1169.01588041 -461.70849609 1166.53051758 C-470.0236874 1158.81638612 -478.27066945 1151.08403814 -485.64697266 1142.44921875 C-487.96717261 1139.81850877 -490.36275784 1137.27008566 -492.76977539 1134.71899414 C-498.25660314 1128.90265322 -503.56430583 1123.03767871 -508.55712891 1116.78515625 C-510.53590965 1114.33019833 -512.56697649 1111.93001666 -514.62426758 1109.54077148 C-546.20007888 1072.7930117 -572.47227097 1030.99884267 -594.74853516 988.06640625 C-595.26222656 987.08285156 -595.77591797 986.09929688 -596.30517578 985.0859375 C-633.41089777 913.73244387 -656.56190393 834.2689478 -665.99853516 746.62890625 C-666.0817099 745.82232574 -666.16488464 745.01574524 -666.25057983 744.1847229 C-668.44962059 722.5892417 -668.99253652 701.13291838 -668.99853516 679.44140625 C-668.99897701 678.70892166 -668.99941887 677.97643707 -668.99987411 677.22175598 C-669.00740176 653.38379456 -668.44563143 629.7721208 -665.74853516 606.06640625 C-665.66367859 605.29838684 -665.57882202 604.53036743 -665.49139404 603.73907471 C-656.97705151 526.67903606 -635.37703339 451.88715952 -601.74853516 382.06640625 C-601.26030273 381.05143066 -600.77207031 380.03645508 -600.26904297 378.99072266 C-585.25719379 347.97250167 -567.67729289 318.18271028 -547.74853516 290.06640625 C-547.20600098 289.2986084 -546.6634668 288.53081055 -546.10449219 287.73974609 C-538.93338418 277.61941737 -531.52588086 267.72780402 -523.74853516 258.06640625 C-523.23822754 257.42993164 -522.72791992 256.79345703 -522.20214844 256.13769531 C-510.77687827 241.90213522 -498.97340125 228.15999158 -486.44921875 214.88037109 C-484.29933564 212.5872859 -482.17717908 210.26969678 -480.05615234 207.94995117 C-472.27906802 199.45281348 -464.34750947 191.16309164 -455.57666016 183.67578125 C-453.71915527 182.04054191 -451.98247506 180.33158832 -450.24853516 178.56640625 C-446.5855689 174.85427266 -442.70618915 171.45959743 -438.74853516 168.06640625 C-437.70522135 167.15925086 -436.66228137 166.25166544 -435.61962891 165.34375 C-428.13686943 158.85030535 -420.49808416 152.61459257 -412.66162109 146.55419922 C-410.62109122 144.96729403 -408.59435077 143.36384643 -406.56884766 141.7578125 C-338.65747256 88.09468788 -258.93485228 48.74068653 0 0 Z M-56.56103516 55.69140625 C-57.75001404 55.81778473 -57.75001404 55.81778473 -58.9630127 55.94671631 C-144.03471541 65.13533191 -226.35408632 91.76309237 -300.74853516 134.06640625 C-301.51053223 134.49904785 -302.2725293 134.93168945 -303.05761719 135.37744141 C-333.27563491 152.6306768 -362.0302244 172.79638721 -388.74853516 195.06640625 C-389.32829102 195.54706543 -389.90804687 196.02772461 -390.50537109 196.52294922 C-397.44716269 202.28523296 -404.1932109 208.21894346 -410.79931641 214.36328125 C-412.29347719 215.75047978 -413.79755769 217.10794079 -415.35327148 218.42602539 C-422.19381187 224.22908536 -428.45661852 230.62414333 -434.78491211 236.97241211 C-436.80617783 238.99903605 -438.83273089 241.02026172 -440.85986328 243.04101562 C-447.03444597 249.21208063 -453.13513571 255.37279831 -458.74853516 262.06640625 C-459.76956305 263.23518231 -460.79301424 264.40184572 -461.81884766 265.56640625 C-493.61154468 301.92521278 -520.74714347 341.61060852 -543.74853516 384.06640625 C-544.37961182 385.21786133 -544.37961182 385.21786133 -545.0234375 386.39257812 C-582.71556334 455.34608003 -605.04270824 532.85593975 -602.74853516 811.06640625 C-602.33078638 812.85391412 -601.91412515 814.64167649 -601.49853516 816.4296875 C-600.47269301 820.82196344 -599.41206887 825.20504605 -598.34277344 829.58691406 C-597.78690666 831.90629903 -597.26130463 834.23021794 -596.74462891 836.55859375 C-592.74565518 854.10700906 -586.64620057 871.08506294 -580.74853516 888.06640625 C-580.41341919 889.0333844 -580.41341919 889.0333844 -580.0715332 890.01989746 C-566.09023352 930.26869033 -547.11053215 968.83439013 -524.74853516 1005.06640625 C-523.80262398 1006.61942719 -522.85725064 1008.17277593 -521.91259766 1009.7265625 C-516.19308842 1019.07055489 -510.06079316 1028.11447672 -503.74853516 1037.06640625 C-503.23919434 1037.79118164 -502.72985352 1038.51595703 -502.20507812 1039.26269531 C-494.89517767 1049.6320829 -487.2280213 1059.60842194 -479.13671875 1069.37841797 C-477.30748001 1071.60271565 -475.52789496 1073.86460562 -473.74853516 1076.12890625 C-459.8966477 1093.45825499 -444.52374555 1109.37581295 -428.87353516 1125.06640625 C-428.28554138 1125.65707886 -427.69754761 1126.24775146 -427.09173584 1126.85632324 C-420.81994902 1133.14976633 -414.52720962 1139.31393642 -407.74853516 1145.06640625 C-406.14085143 1146.52086142 -404.53613801 1147.9786152 -402.93603516 1149.44140625 C-338.47760989 1207.52266615 -258.00169939 1251.16913686 -106.74853516 1293.06640625 C-105.65605469 1293.27217285 -104.56357422 1293.47793945 -103.43798828 1293.68994141 C-88.10092833 1296.5318084 -72.75279114 1298.66240413 -57.24853516 1300.31640625 C-56.10260895 1300.44089645 -56.10260895 1300.44089645 -54.93353271 1300.56790161 C-33.9327346 1302.821324 -12.91916111 1303.27351242 8.18896484 1303.25390625 C9.30053955 1303.25363434 10.41211426 1303.25336243 11.55737305 1303.25308228 C71.70224139 1303.18573985 132.56613032 1295.20557665 189.94970703 1276.79931641 C192.9345263 1275.84891044 195.93657687 1274.95952166 198.93896484 1274.06640625 C226.50697861 1265.5095812 253.26776772 1254.5998538 279.25146484 1242.06640625 C280.39647461 1241.51581543 281.54148437 1240.96522461 282.72119141 1240.39794922 C299.35919177 1232.35448865 315.44681011 1223.63924472 331.25146484 1214.06640625 C332.15977051 1213.52129395 333.06807617 1212.97618164 334.00390625 1212.41455078 C347.15403226 1204.51118023 359.80796202 1196.03753435 372.25146484 1187.06640625 C373.46213623 1186.19798096 373.46213623 1186.19798096 374.69726562 1185.31201172 C385.57438108 1177.49087893 396.07939534 1169.31741342 406.32617188 1160.6875 C408.13846945 1159.1615482 409.95754293 1157.64413322 411.77880859 1156.12890625 C418.63012362 1150.40760158 425.25929683 1144.4806768 431.79833984 1138.40625 C433.18832561 1137.12462334 434.5945532 1135.8606792 436.00146484 1134.59765625 C442.54339233 1128.70992151 448.83057885 1122.59253033 455.06396484 1116.37890625 C455.86455322 1115.58291016 456.6651416 1114.78691406 457.48999023 1113.96679688 C461.7147743 1109.73100962 465.77909005 1105.41702132 469.6809082 1100.88208008 C471.93308556 1098.27840481 474.2800145 1095.77299333 476.62646484 1093.25390625 C480.86457186 1088.6608125 484.90746677 1083.95370403 488.82568359 1079.08203125 C490.60506349 1076.86998409 492.39777037 1074.67433786 494.20849609 1072.48828125 C515.17215836 1047.10765556 533.89801277 1019.63629507 550.25146484 991.06640625 C550.66477051 990.34727051 551.07807617 989.62813477 551.50390625 988.88720703 C554.49682214 983.65462987 557.39363833 978.37379836 560.25146484 973.06640625 C560.74227539 972.15858398 561.23308594 971.25076172 561.73876953 970.31542969 C580.47889539 935.48565061 595.51173672 898.82954592 607.25146484 861.06640625 C607.50943848 860.24124512 607.76741211 859.41608398 608.03320312 858.56591797 C620.93873969 816.75465597 629.13498771 772.67849134 632.25146484 729.06640625 C632.38174072 727.3330603 632.38174072 727.3330603 632.51464844 725.56469727 C633.57075162 710.19204376 633.49719252 694.7802718 633.50146484 679.37890625 C633.5019067 678.64825329 633.50234856 677.91760033 633.5028038 677.16480637 C633.51413786 641.35390476 631.06579701 606.41718829 625.25146484 571.06640625 C625.06890137 569.9465332 624.88633789 568.82666016 624.69824219 567.67285156 C616.6613156 519.62939565 601.87470319 472.58593897 582.25146484 428.06640625 C581.490354 426.33100586 581.490354 426.33100586 580.71386719 424.56054688 C560.96241212 379.86433817 535.93795593 337.88791859 506.25146484 299.06640625 C505.76097656 298.42429199 505.27048828 297.78217773 504.76513672 297.12060547 C498.63632382 289.13438702 492.24685355 281.38746466 485.69140625 273.74902344 C484.16672458 271.96738457 482.65190979 270.17767215 481.13818359 268.38671875 C474.30235901 260.31597135 474.30235901 260.31597135 466.92651367 252.74243164 C465.25565639 251.07060024 463.7337828 249.33297005 462.20458984 247.53125 C457.64393309 242.28682491 452.73691323 237.40586125 447.81396484 232.50390625 C446.91097656 231.59705078 446.00798828 230.69019531 445.07763672 229.75585938 C440.52025545 225.20507823 435.91149026 220.78678209 431.02319336 216.59301758 C428.43080185 214.35928131 425.94296917 212.02380748 423.43896484 209.69140625 C418.84721804 205.45454208 414.1419237 201.41234742 409.27099609 197.49609375 C407.04479324 195.70476364 404.83658368 193.89902322 402.63818359 192.07421875 C393.52177408 184.53470169 384.13882008 177.47972897 374.48193359 170.6484375 C372.31401493 169.1107719 370.15666603 167.55932974 368.00146484 166.00390625 C341.91136755 147.25297948 313.94699758 131.45004731 285.25146484 117.06640625 C284.20877441 116.54304688 283.16608398 116.0196875 282.09179688 115.48046875 C252.83528793 100.89155621 222.50206897 89.06768316 191.20068359 79.66113281 C189.1381204 79.0318237 187.08568882 78.37472824 185.03271484 77.71484375 C142.10641934 64.12036477 97.09531203 57.12047076 52.25146484 54.06640625 C51.0063916 53.97810547 49.76131836 53.88980469 48.47851562 53.79882812 C36.42398169 53.00218875 24.39019336 52.91281913 12.3125 52.93603516 C9.01997222 52.94137623 5.72758217 52.93606551 2.43505859 52.9296875 C-17.30317793 52.92175216 -36.9291433 53.58893568 -56.56103516 55.69140625 Z " fill="#FEFEFE" transform="translate(668.74853515625,-0.06640625)"/>
<path d="M0 0 C0.66 0 1.32 0 2 0 C2 70.95 2 141.9 2 215 C4.97 215.66 7.94 216.32 11 217 C12.50798341 217.41653642 14.01080366 217.8537059 15.50073242 218.33081055 C16.66649307 218.7010862 16.66649307 218.7010862 17.85580444 219.07884216 C18.68069366 219.34544144 19.50558289 219.61204071 20.35546875 219.88671875 C21.26173004 220.17631973 22.16799133 220.46592072 23.10171509 220.76429749 C26.13173413 221.73431967 29.15966538 222.71068238 32.1875 223.6875 C34.36350527 224.38645589 36.53953126 225.08534725 38.71557617 225.78417969 C62.64017643 233.48220718 86.50739089 241.35655669 110.37930298 249.21603394 C111.8414103 249.69740811 113.30351764 250.17878222 114.765625 250.66015625 C115.48051464 250.89553226 116.19540428 251.13090828 116.93195724 251.3734169 C128.96759458 255.33573175 141.00940944 259.27856513 153.0625 263.1875 C153.77242096 263.41812134 154.48234192 263.64874268 155.21377563 263.88635254 C162.8021621 266.35045635 170.40773887 268.74865501 178.03735352 271.08227539 C182.19159893 272.36911581 186.31666984 273.73546048 190.4375 275.125 C191.18708984 275.37636719 191.93667969 275.62773438 192.70898438 275.88671875 C194.14848183 276.36950016 195.58778541 276.85286017 197.02685547 277.33691406 C199.68294087 278.22950599 202.34131796 279.11517714 205 280 C201.16362205 282.5575853 197.21387585 283.81260116 192.875 285.3125 C192.07707031 285.59544922 191.27914062 285.87839844 190.45703125 286.16992188 C185.21546497 287.9967738 179.931186 289.61473276 174.59765625 291.1484375 C163.13750379 294.46257888 151.8343638 298.26674689 140.50866699 302.00915527 C133.71270618 304.25458622 126.91313816 306.48905668 120.11328125 308.72265625 C119.4275642 308.94795895 118.74184715 309.17326164 118.0353508 309.40539169 C103.79313635 314.08328959 89.52033274 318.66304112 75.2355957 323.2093811 C63.51222088 326.94089957 51.80166171 330.70695387 40.11328125 334.546875 C38.97186676 334.92152893 37.83045227 335.29618286 36.65444946 335.68218994 C31.14746295 337.49063926 25.64229502 339.30436538 20.13964844 341.12597656 C18.17778086 341.77162563 16.21586925 342.41714093 14.25390625 343.0625 C13.35650223 343.36162292 12.45909821 343.66074585 11.53450012 343.96893311 C10.71301987 344.23828674 9.89153961 344.50764038 9.04516602 344.78515625 C8.33215836 345.02113525 7.6191507 345.25711426 6.88453674 345.50024414 C5 346 5 346 2 346 C2 416.95 2 487.9 2 561 C1.34 561 0.68 561 0 561 C-1.85543604 558.57719922 -3.59528411 556.14374755 -5.3125 553.625 C-6.40268393 552.05271802 -7.4938621 550.48112504 -8.5859375 548.91015625 C-9.15022461 548.09562988 -9.71451172 547.28110352 -10.29589844 546.44189453 C-12.96543201 542.61658296 -15.69901613 538.83861577 -18.4375 535.0625 C-19.53126108 533.55209135 -20.62501102 532.04167464 -21.71875 530.53125 C-22.26144531 529.78230469 -22.80414062 529.03335938 -23.36328125 528.26171875 C-24.98509064 526.02060267 -26.60265132 523.77648685 -28.21875 521.53125 C-33.7698091 513.82214819 -39.35544803 506.14096715 -45 498.5 C-52.27942622 488.64592179 -59.44830324 478.71425666 -66.60449219 468.77050781 C-72.6923875 460.31406964 -78.80868741 451.88111091 -85 443.5 C-91.73538494 434.38238441 -98.37765148 425.19989751 -105 416 C-107.31133495 412.79082536 -109.62413052 409.58270821 -111.9375 406.375 C-112.45707275 405.65304443 -112.97664551 404.93108887 -113.51196289 404.18725586 C-114.01203857 403.4938208 -114.51211426 402.80038574 -115.02734375 402.0859375 C-115.51187012 401.41401367 -115.99639648 400.74208984 -116.49560547 400.04980469 C-118.57928435 397.21069922 -120.73457365 394.42752392 -122.90063477 391.65087891 C-124 390 -124 390 -124 388 C-124.59683594 388.23074219 -125.19367188 388.46148438 -125.80859375 388.69921875 C-131.1945754 390.72396371 -136.59712146 392.49213184 -142.1328125 394.0625 C-153.68194261 397.40525855 -165.0744957 401.23661789 -176.48886108 405.0083313 C-183.29737351 407.25791601 -190.10947229 409.49660384 -196.921875 411.734375 C-197.60868536 411.96004213 -198.29549572 412.18570927 -199.00311852 412.4182148 C-213.03180729 417.02605604 -227.09206419 421.53213923 -241.16299438 426.00924683 C-253.6984183 429.9996155 -266.21650795 434.03957032 -278.71484375 438.14453125 C-279.37920881 438.36266291 -280.04357388 438.58079456 -280.72807121 438.80553627 C-286.64450257 440.74835609 -292.5604888 442.69251455 -298.47348022 444.64578247 C-302.07796987 445.83631619 -305.683474 447.02373678 -309.2890625 448.2109375 C-310.35756943 448.5653743 -311.42607635 448.9198111 -312.52696228 449.2849884 C-317.98219252 451.07888976 -323.40719368 452.69392555 -329 454 C-324.99564305 447.87552989 -320.80897148 441.92942585 -316.4375 436.0625 C-311.73365013 429.71383375 -307.05763007 423.34738481 -302.4375 416.9375 C-301.63868408 415.82955078 -301.63868408 415.82955078 -300.82373047 414.69921875 C-299.21507583 412.4666808 -297.60735672 410.23347255 -296 408 C-289.31773925 398.71478923 -282.61110993 389.45050301 -275.8125 380.25 C-270.99605784 373.73131921 -266.23977065 367.1755172 -261.54296875 360.5703125 C-253.55154225 349.33484157 -245.42577605 338.19855572 -237.23364258 327.10888672 C-232.19397936 320.27987407 -227.21497926 313.40858541 -222.2578125 306.51953125 C-219.97146618 303.34250028 -217.67297828 300.17466486 -215.3671875 297.01171875 C-214.77236572 296.19388916 -214.17754395 295.37605957 -213.56469727 294.53344727 C-212.42424501 292.96586171 -211.28161535 291.39985719 -210.13647461 289.83569336 C-209.6235083 289.12936768 -209.11054199 288.42304199 -208.58203125 287.6953125 C-208.13061768 287.07672363 -207.6792041 286.45813477 -207.21411133 285.82080078 C-205.96317278 283.94477029 -204.96505847 282.03575361 -204 280 C-210.78390835 270.29627761 -217.67001132 260.68045391 -224.71313477 251.16308594 C-231.42396046 242.09007171 -238.01263246 232.93010353 -244.60449219 223.77050781 C-250.6923875 215.31406964 -256.80868741 206.88111091 -263 198.5 C-269.19011119 190.12051542 -275.30474309 181.68892637 -281.39111328 173.23388672 C-284.09012118 169.48640231 -286.79531494 165.74338799 -289.5 162 C-292.74131453 157.51389621 -295.98141954 153.02695169 -299.21484375 148.53515625 C-305.4677032 139.85468263 -311.76394443 131.20985111 -318.15600586 122.63110352 C-321.94036793 117.52733024 -325.52304981 112.317827 -329 107 C-325.52936397 107.63604576 -322.25069695 108.49677054 -318.90161133 109.60375977 C-317.90011047 109.93309509 -316.89860962 110.26243042 -315.86676025 110.60174561 C-314.78279968 110.96133362 -313.69883911 111.32092163 -312.58203125 111.69140625 C-311.43885437 112.06783264 -310.29567749 112.44425903 -309.11785889 112.83209229 C-306.00038857 113.85871501 -302.88369274 114.88765343 -299.76720047 115.91724014 C-293.77919564 117.89392107 -287.78797887 119.86086143 -281.796875 121.828125 C-281.12339586 122.04934839 -280.44991673 122.27057178 -279.75602913 122.49849892 C-267.04662317 126.67194023 -254.31042002 130.75834111 -241.5625 134.8125 C-218.85108524 142.03838925 -196.20753567 149.46655263 -173.57349777 156.93054295 C-170.76854044 157.85538966 -167.96330658 158.77939608 -165.15806198 159.70337105 C-163.24221085 160.33490222 -161.32685989 160.96795009 -159.41152954 161.60105896 C-152.53865276 163.86569322 -145.64863167 166.05673377 -138.72598267 168.16455078 C-135.52829426 169.14456665 -132.35643157 170.18096284 -129.1875 171.25 C-128.19105469 171.58515625 -127.19460938 171.9203125 -126.16796875 172.265625 C-125.09482422 172.62914062 -125.09482422 172.62914062 -124 173 C-123.64421875 171.94619141 -123.64421875 171.94619141 -123.28125 170.87109375 C-121.76751469 167.47903443 -119.81525072 164.96755352 -117.5 162.0625 C-113.95264942 157.55160796 -110.50352116 152.99628697 -107.1875 148.3125 C-106.78120361 147.73927002 -106.37490723 147.16604004 -105.95629883 146.57543945 C-105.09705256 145.36303751 -104.23792523 144.15055127 -103.37890625 142.93798828 C-100.83422434 139.3615568 -98.25974716 135.80663078 -95.6875 132.25 C-94.57551738 130.71224208 -93.46353824 129.17448164 -92.3515625 127.63671875 C-91.79629883 126.8689209 -91.24103516 126.10112305 -90.66894531 125.31005859 C-89.03481701 123.04819171 -87.4036287 120.78423692 -85.7734375 118.51953125 C-79.64502803 110.01007941 -73.46380502 101.54260315 -67.23291016 93.10791016 C-61.09080366 84.78497251 -55.04209317 76.39567785 -49 68 C-42.37863265 58.79940253 -35.7351908 49.61773894 -29 40.5 C-24.36848933 34.22797506 -19.75763313 27.94192464 -15.1875 21.625 C-14.65278076 20.88652832 -14.11806152 20.14805664 -13.56713867 19.38720703 C-11.08708366 15.94796163 -8.63831534 12.49339964 -6.2578125 8.984375 C-5.84120361 8.37126465 -5.42459473 7.7581543 -4.99536133 7.12646484 C-3.89205293 5.49279416 -2.79912911 3.85212353 -1.70703125 2.2109375 C-1.14371094 1.48132813 -0.58039063 0.75171875 0 0 Z " fill="#FEFEFE" transform="translate(668,703)"/>
<path d="M0 0 C3.31219784 1.65609892 4.06941543 5.31455796 5.46484375 8.58984375 C5.98196678 9.78052208 5.98196678 9.78052208 6.50953674 10.99525452 C7.26102705 12.72669843 8.00967407 14.45937846 8.75585938 16.19311523 C10.77994204 20.89408905 12.82606504 25.58545272 14.87109375 30.27734375 C15.50662674 31.7371315 15.50662674 31.7371315 16.15499878 33.22640991 C20.50420645 43.19619545 24.99425153 53.10023759 29.5 63 C35.78858485 76.83176347 41.97765386 90.70240717 48.0625 104.625 C54.0878654 118.41118133 60.1887025 132.16024806 66.375 145.875 C67.1275524 147.54466439 67.88007559 149.21434194 68.63256836 150.8840332 C71.40279733 157.02918757 74.17411888 163.17384403 76.95117188 169.31591797 C78.68202902 173.14532175 80.40394007 176.97868342 82.125 180.8125 C82.62821777 181.92157715 83.13143555 183.0306543 83.64990234 184.17333984 C84.32206787 185.67501709 84.32206787 185.67501709 85.0078125 187.20703125 C85.39598145 188.0678833 85.78415039 188.92873535 86.18408203 189.81567383 C87 192 87 192 87 195 C121.87316451 191.49790182 156.74052767 187.94703117 191.59359121 184.24979782 C194.73481716 183.91669278 197.87610222 183.58414713 201.01738942 183.25162029 C214.52644891 181.82156153 228.03537673 180.39030403 241.54321289 178.94873047 C248.74379858 178.18030461 255.94481606 177.41607427 263.14636356 176.65671349 C267.63137715 176.18358059 272.1158113 175.70538857 276.59987104 175.22330379 C279.97973209 174.86150045 283.36039978 174.50748899 286.7409668 174.15234375 C287.96252975 174.01948471 289.18409271 173.88662567 290.44267273 173.7497406 C291.54893005 173.63501907 292.65518738 173.52029755 293.79496765 173.40209961 C295.23957131 173.24843178 295.23957131 173.24843178 296.71335888 173.09165955 C299 173 299 173 301 174 C286.06340203 188.02931634 286.06340203 188.02931634 280.01953125 193.23046875 C277.30513807 195.6088442 274.65427613 198.05508905 272 200.5 C268.09025645 204.10020455 264.14133329 207.64417782 260.125 211.125 C257.38176582 213.54550075 254.69115432 216.02200642 252 218.5 C248.09018405 222.10012756 244.14133532 225.64417605 240.125 229.125 C237.38176582 231.54550075 234.69115432 234.02200642 232 236.5 C228.09018405 240.10012756 224.14133532 243.64417605 220.125 247.125 C217.38176582 249.54550075 214.69115432 252.02200642 212 254.5 C208.09018405 258.10012756 204.14133532 261.64417605 200.125 265.125 C197.38176582 267.54550075 194.69115432 270.02200642 192 272.5 C188.09018405 276.10012756 184.14133532 279.64417605 180.125 283.125 C177.38176582 285.54550075 174.69115432 288.02200642 172 290.5 C168.09694253 294.09390441 164.15674708 297.63384621 160.14453125 301.10546875 C156.75177286 304.10271432 153.43579798 307.18424745 150.12304688 310.26953125 C147.82425975 312.39613589 145.61341427 314.25772382 143 316 C144.90373724 322.07326397 147.14740762 327.85019054 149.81640625 333.625 C150.36887024 334.83623032 150.36887024 334.83623032 150.93249512 336.07192993 C151.72515046 337.80930735 152.51968948 339.5458264 153.31594849 341.28155518 C155.47146777 345.98225159 157.6109698 350.69021979 159.75 355.3984375 C160.40948387 356.84940323 160.40948387 356.84940323 161.08229065 358.3296814 C165.49510175 368.05730748 169.78809696 377.83595446 174.0625 387.625 C180.0047437 401.22358049 186.02019987 414.78608803 192.125 428.3125 C192.68385391 429.55080063 192.68385391 429.55080063 193.2539978 430.81411743 C193.62481476 431.63576385 193.99563171 432.45741028 194.37768555 433.30395508 C200.0783976 445.93709756 205.73443002 458.58942624 211.34594727 471.26245117 C211.98709598 472.71014405 212.62829008 474.15781683 213.26953125 475.60546875 C213.58076431 476.30818405 213.89199738 477.01089935 214.21266174 477.73490906 C216.05638048 481.89156423 217.91722888 486.03999117 219.79498291 490.18138123 C220.67430027 492.12082057 221.55070026 494.06155168 222.42626953 496.00268555 C223.48987149 498.35730541 224.55953166 500.70920139 225.63623047 503.05786133 C226.09787598 504.08290771 226.55952148 505.1079541 227.03515625 506.1640625 C227.4412915 507.05561035 227.84742676 507.9471582 228.26586914 508.86572266 C228.62926392 509.92218994 228.62926392 509.92218994 229 511 C228.67 511.66 228.34 512.32 228 513 C224.16603451 510.79276329 220.33276413 508.58432205 216.5 506.375 C215.91377869 506.03709442 215.32755737 505.69918884 214.72357178 505.3510437 C206.50853204 500.6144932 198.3095522 495.85159901 190.125 491.0625 C181.44744285 485.98713808 172.7339433 480.97741175 164 476 C154.27884383 470.4599827 144.59105342 464.86625191 134.93310547 459.21655273 C124.40915375 453.06233258 113.84619863 446.97630004 103.28222656 440.89111328 C96.78663684 437.14856359 90.29393958 433.40099757 83.80102539 429.65380859 C78.71374968 426.71817241 73.62573896 423.78383388 68.5350647 420.85409546 C66.12456252 419.46671905 63.71448624 418.07860376 61.30444336 416.69042969 C59.59856032 415.70826185 57.89206014 414.72716615 56.18554688 413.74609375 C54.64157227 412.85664062 54.64157227 412.85664062 53.06640625 411.94921875 C52.15834229 411.42674561 51.25027832 410.90427246 50.31469727 410.3659668 C48.50873799 409.30022034 46.74478871 408.16319248 45 407 C41.56396472 407.31384394 39.8199214 408.78396938 37.390625 411.1328125 C36.71773438 411.77476562 36.04484375 412.41671875 35.3515625 413.078125 C34.65804688 413.75359375 33.96453125 414.4290625 33.25 415.125 C31.88150877 416.44145734 30.51171823 417.75656537 29.140625 419.0703125 C28.45806641 419.72483398 27.77550781 420.37935547 27.07226562 421.05371094 C24.39744331 423.56592624 21.63986918 425.97253183 18.86621094 428.37451172 C16.19645046 430.69989964 13.60051747 433.09734799 11 435.5 C7.0910778 439.10109458 3.14131356 442.64419491 -0.875 446.125 C-3.61823418 448.54550075 -6.30884568 451.02200642 -9 453.5 C-12.90981595 457.10012756 -16.85866468 460.64417605 -20.875 464.125 C-23.61823418 466.54550075 -26.30884568 469.02200642 -29 471.5 C-32.90981595 475.10012756 -36.85866468 478.64417605 -40.875 482.125 C-43.61823418 484.54550075 -46.30884568 487.02200642 -49 489.5 C-52.90981595 493.10012756 -56.85866468 496.64417605 -60.875 500.125 C-63.61823418 502.54550075 -66.30884568 505.02200642 -69 507.5 C-72.90981595 511.10012756 -76.85866468 514.64417605 -80.875 518.125 C-83.61823418 520.54550075 -86.30884568 523.02200642 -89 525.5 C-92.90035322 529.09141435 -96.83707456 532.62973255 -100.84765625 536.09765625 C-102.62592225 537.6693723 -104.37770657 539.26113172 -106.12109375 540.87109375 C-106.66830078 541.37640625 -107.21550781 541.88171875 -107.77929688 542.40234375 C-108.87251159 543.41443653 -109.96370903 544.42871327 -111.05273438 545.4453125 C-114.89119945 549 -114.89119945 549 -116 549 C-115.37532765 543.5173195 -114.50407866 538.17637973 -113.35546875 532.78125 C-113.10722855 531.59653107 -113.10722855 531.59653107 -112.85397339 530.38787842 C-112.30181473 527.75787204 -111.74475673 525.12893054 -111.1875 522.5 C-110.78881373 520.60778266 -110.39029948 518.71552906 -109.99194336 516.82324219 C-105.70570349 496.49606954 -101.33750904 476.18624363 -96.9765625 455.875 C-93.27045715 438.61308342 -89.59252961 421.34523328 -85.92857361 404.07432556 C-84.53165336 397.49312078 -83.12701173 390.91359394 -81.71931458 384.33468628 C-80.68629388 379.50362487 -79.65660196 374.67185735 -78.62747192 369.83996582 C-78.12912658 367.50380401 -77.62936927 365.16794292 -77.12814331 362.83239746 C-76.43325824 359.59347536 -75.7434032 356.35351992 -75.0546875 353.11328125 C-74.84585434 352.14584488 -74.63702118 351.17840851 -74.42185974 350.18165588 C-74.23350052 349.29066696 -74.0451413 348.39967804 -73.85107422 347.48168945 C-73.68582245 346.70855911 -73.52057068 345.93542877 -73.35031128 345.13887024 C-72.89224679 342.70332702 -72.89224679 342.70332702 -73 339 C-74.06806885 338.39079712 -74.06806885 338.39079712 -75.15771484 337.76928711 C-91.39045455 328.50808466 -107.60059805 319.2092014 -123.78222656 309.85888672 C-129.18670645 306.73675395 -134.59347412 303.61858796 -140 300.5 C-142.1666775 299.25001878 -144.33334417 298.00001879 -146.5 296.75 C-147.5725 296.13125 -148.645 295.5125 -149.75 294.875 C-185.5 274.25 -221.25 253.625 -257 233 C-253.24278707 230.65530584 -249.2921254 230.39477071 -244.98677063 229.96897888 C-243.76610351 229.83884206 -243.76610351 229.83884206 -242.52077645 229.7060762 C-239.79102479 229.41697678 -237.06024967 229.13907122 -234.3293457 228.86108398 C-232.37286956 228.65618967 -230.41646547 228.45060638 -228.46012878 228.24438477 C-223.14246007 227.68581069 -217.82383386 227.13688644 -212.50498986 226.58963275 C-206.93789485 226.01516762 -201.37173185 225.43181216 -195.8054657 224.84938049 C-185.25238019 223.74650642 -174.6984885 222.65155369 -164.14428157 221.55946928 C-152.16697731 220.31977195 -140.19055384 219.07167075 -128.21421683 217.82266891 C-113.6132083 216.29995799 -99.01209385 214.77829264 -84.41023254 213.26377869 C-83.37615277 213.15649795 -82.34207299 213.04921721 -81.27665746 212.93868554 C-76.44035336 212.43698005 -71.60401406 211.93561864 -66.76760864 211.43489075 C-65.06112044 211.25795102 -63.35463336 211.08100057 -61.64814758 210.90403748 C-60.52427917 210.78788823 -60.52427917 210.78788823 -59.37770635 210.66939253 C-54.24899896 210.13710701 -49.12421531 209.57395701 -44 209 C-43.89042969 208.37061523 -43.78085937 207.74123047 -43.66796875 207.09277344 C-41.19065442 192.99927181 -38.40802671 179.01673249 -35.25 165.0625 C-32.15998551 151.4078964 -29.27250864 137.72254907 -26.5 124 C-23.65176276 109.91284242 -20.68116072 95.86475396 -17.51327515 81.84613037 C-14.39493817 68.0252733 -11.5460101 54.15501127 -8.73416138 40.2689209 C-6.00565828 26.80072686 -3.18250779 13.36973121 0 0 Z " fill="#FEFEFE" transform="translate(431,146)"/>
<path d="M0 0 C5.7349894 4.10391113 10.91602558 8.55708315 16 13.4375 C20.62521586 17.85042567 25.29527121 22.17465539 30.125 26.36352539 C32.79580665 28.69456927 35.39617085 31.09428829 38 33.5 C41.29952777 36.53968996 44.60951607 39.56158059 48 42.5 C51.9308925 45.9067735 55.75196573 49.43002785 59.578125 52.953125 C62.35494057 55.50555143 65.14980717 58.02983288 68 60.5 C71.9308925 63.9067735 75.75196573 67.43002785 79.578125 70.953125 C82.35494057 73.50555143 85.14980717 76.02983288 88 78.5 C91.9308925 81.9067735 95.75196573 85.43002785 99.578125 88.953125 C102.35494057 91.50555143 105.14980717 94.02983288 108 96.5 C111.9308925 99.9067735 115.75196573 103.43002785 119.578125 106.953125 C122.35494057 109.50555143 125.14980717 112.02983288 128 114.5 C131.39051763 117.43844861 134.69937074 120.46147953 138 123.5 C146.84855453 131.66847782 146.84855453 131.66847782 156.234375 139.19921875 C156.94303711 139.72733154 157.65169922 140.25544434 158.38183594 140.79956055 C158.91583008 141.19570557 159.44982422 141.59185059 160 142 C160.65145996 141.62415771 161.30291992 141.24831543 161.97412109 140.86108398 C206.81608073 114.99072266 251.65804036 89.12036133 296.5 63.25 C297.57435303 62.63012207 298.64870605 62.01024414 299.75561523 61.37158203 C301.9033582 60.13261766 304.05130455 58.89400576 306.19946289 57.65576172 C311.29179437 54.71985895 316.38191695 51.78030245 321.4649353 48.82830811 C323.87434008 47.42931947 326.2849009 46.03232971 328.69555664 44.63549805 C330.40298982 43.64501929 332.10873972 42.6516406 333.81445312 41.65820312 C334.84376953 41.06201172 335.87308594 40.46582031 336.93359375 39.8515625 C337.84165771 39.32385254 338.74972168 38.79614258 339.68530273 38.25244141 C342 37 342 37 345 36 C343.45980098 40.97478404 341.45077696 45.61100575 339.28125 50.33203125 C338.51552865 52.01317678 337.74982299 53.69432945 336.98413086 55.37548828 C336.37793411 56.70196381 336.37793411 56.70196381 335.75949097 58.05523682 C328.69339741 73.52424781 321.74449382 89.04033889 314.9375 104.625 C308.26312043 119.89787163 301.47700092 135.11661304 294.62011719 150.30834961 C288.94079085 162.8930463 283.30430371 175.49613692 277.7265625 188.1262207 C274.55708401 195.29598417 271.34675595 202.4418022 268.04296875 209.55078125 C267.11532761 211.5617965 266.18887404 213.57335417 265.2628479 215.58511353 C264.67698016 216.84869731 264.08543312 218.10966533 263.48788452 219.36776733 C262.6734793 221.08246199 261.87914262 222.80664591 261.0859375 224.53125 C260.6326709 225.49611328 260.1794043 226.46097656 259.71240234 227.45507812 C258.76524671 229.94301719 258.76524671 229.94301719 259.68359375 232.1550293 C260.99779597 233.99691101 262.30625344 235.46429721 263.9765625 236.98828125 C264.56066895 237.52598145 265.14477539 238.06368164 265.74658203 238.61767578 C266.36645996 239.17696777 266.98633789 239.73625977 267.625 240.3125 C268.26163574 240.89499512 268.89827148 241.47749023 269.55419922 242.07763672 C273.30711234 245.50129656 277.09879095 248.87706859 280.9453125 252.1953125 C283.66924703 254.58781774 286.33343269 257.04405942 289 259.5 C292.3002483 262.53892335 295.6094941 265.56156156 299 268.5 C302.9308925 271.9067735 306.75196573 275.43002785 310.578125 278.953125 C313.35494057 281.50555143 316.14980717 284.02983288 319 286.5 C322.9308925 289.9067735 326.75196573 293.43002785 330.578125 296.953125 C333.35494057 299.50555143 336.14980717 302.02983288 339 304.5 C342.9308925 307.9067735 346.75196573 311.43002785 350.578125 314.953125 C353.35494057 317.50555143 356.14980717 320.02983288 359 322.5 C362.9308925 325.9067735 366.75196573 329.43002785 370.578125 332.953125 C373.35494057 335.50555143 376.14980717 338.02983288 379 340.5 C382.9308925 343.9067735 386.75196573 347.43002785 390.578125 350.953125 C393.95670976 354.05869281 397.38109734 357.09968335 400.8515625 360.1015625 C404.27632373 363.12780606 407.62232091 366.24074517 410.96484375 369.35742188 C413.76290569 371.98217364 413.76290569 371.98217364 417 374 C416.67 374.66 416.34 375.32 416 376 C415.15243039 375.90149372 414.30486078 375.80298744 413.43160725 375.70149612 C390.00787175 372.98581428 366.56979359 370.42930222 343.11892676 367.95970058 C340.34251601 367.66721844 337.56615283 367.37428859 334.78980446 367.0812149 C325.07007474 366.05519811 315.35018392 365.03072437 305.63012695 364.0078125 C296.61048442 363.0585681 287.59121928 362.10579334 278.57211274 361.1514709 C270.76354413 360.32539113 262.95472475 359.50171179 255.14570457 358.67991185 C250.50801451 358.1918142 245.87043032 357.70276063 241.23309898 357.21126556 C236.90002818 356.75210011 232.56665313 356.29592289 228.2330246 355.84205246 C226.64703104 355.67543595 225.06114884 355.50775541 223.47538948 355.33892441 C221.30982862 355.10853206 219.1438963 354.88200691 216.97782898 354.65643311 C215.76780559 354.52889019 214.55778219 354.40134727 213.31109142 354.26993942 C210.18901585 354.01540967 207.13060748 353.9499043 204 354 C194.89751136 374.12206089 185.84823205 394.26466052 177 414.5 C170.29994976 429.81999149 163.49008756 445.08701572 156.61157227 460.32763672 C151.68506102 471.24466092 146.79400996 482.17665797 141.9375 493.125 C136.14745742 506.17676201 130.33341964 519.21756243 124.5 532.25 C124.12011932 533.09870667 123.74023865 533.94741333 123.34884644 534.82183838 C121.23317842 539.54816742 119.11687485 544.27421138 117 549 C115.25639751 545.86955651 114.44246832 542.96713608 113.73828125 539.4609375 C113.51027832 538.34130615 113.28227539 537.2216748 113.04736328 536.06811523 C112.8048584 534.84938721 112.56235352 533.63065918 112.3125 532.375 C111.91334106 530.41018516 111.51417353 528.44537205 111.11462402 526.4806366 C110.69215266 524.3987733 110.2722151 522.31641352 109.85302734 520.23388672 C108.45681168 513.29907636 107.04476355 506.36752489 105.625 499.4375 C105.40787857 498.37625916 105.40787857 498.37625916 105.18637085 497.2935791 C102.79666992 485.63369362 100.24014787 474.01637534 97.62506104 462.40524292 C94.75413248 449.63537079 92.09463891 436.82863095 89.5 424 C86.71273654 410.219379 83.83117209 396.46805054 80.75 382.75 C80.50189575 381.64496628 80.50189575 381.64496628 80.2487793 380.51760864 C80.08611572 379.79322601 79.92345215 379.06884338 79.75585938 378.32250977 C79.43614376 376.89861242 79.11648126 375.47470315 78.796875 374.05078125 C78.643396 373.36709976 78.48991699 372.68341827 78.33178711 371.97901917 C76.83825508 365.30898168 75.40265554 358.62724547 74 351.9375 C73.79213867 350.95555664 73.58427734 349.97361328 73.37011719 348.96191406 C73.09409668 347.63305176 73.09409668 347.63305176 72.8125 346.27734375 C72.65394531 345.51671631 72.49539063 344.75608887 72.33203125 343.97241211 C72 342 72 342 72 339 C70.81463056 338.92536781 70.81463056 338.92536781 69.60531425 338.84922791 C59.37598148 338.16575897 49.19851536 337.14251119 39.00439453 336.06640625 C37.13358061 335.87064407 35.26274564 335.67508301 33.39189148 335.47970581 C28.35286704 334.9528802 23.31414535 334.42321046 18.27548075 333.89295578 C12.98499628 333.33665424 7.69424865 332.78286645 2.40353394 332.22875977 C-6.47137456 331.29891003 -15.34610004 330.36733019 -24.22070312 329.43457031 C-35.59970077 328.23859713 -46.97900034 327.04552213 -58.35839653 325.85334778 C-68.16640709 324.82577495 -77.97427511 323.79684402 -87.78212214 322.76771164 C-90.92461772 322.43803187 -94.06713333 322.10854347 -97.20965195 321.77908325 C-102.14937387 321.26112009 -107.08900586 320.74230713 -112.02857018 320.22284317 C-113.83770737 320.03270674 -115.64687254 319.84283628 -117.45606804 319.65325546 C-119.93114834 319.39384654 -122.40612273 319.13344894 -124.881073 318.87280273 C-125.59139171 318.79857873 -126.30171043 318.72435472 -127.03355396 318.64788151 C-131.69727032 318.15530115 -136.34828857 317.5932897 -141 317 C-138.4916488 314.18215963 -135.70077062 312.54276277 -132.42578125 310.69921875 C-131.29575684 310.05911865 -130.16573242 309.41901855 -129.00146484 308.75952148 C-128.10050079 308.25350906 -128.10050079 308.25350906 -127.18133545 307.73727417 C-123.98901802 305.94406526 -120.80583354 304.13474566 -117.62109375 302.328125 C-116.65130585 301.7789164 -116.65130585 301.7789164 -115.66192627 301.21861267 C-109.70368197 297.84142746 -103.7843799 294.39944033 -97.875 290.9375 C-86.3717498 284.20710887 -74.83075996 277.54343895 -63.28222656 270.89111328 C-57.85340058 267.76319852 -52.42680719 264.63141552 -47 261.5 C-44.83334417 260.24998121 -42.6666775 258.99998122 -40.5 257.75 C-39.4275 257.13125 -38.355 256.5125 -37.25 255.875 C-27.5 250.25 -27.5 250.25 -24.24951172 248.37475586 C-22.08442929 247.12564482 -19.91939018 245.87645871 -17.75439453 244.62719727 C-12.31384294 241.48797691 -6.87252784 238.35009437 -1.4296875 235.21484375 C0.75521193 233.95573541 2.94010779 232.69662086 5.125 231.4375 C6.18525391 230.82704834 7.24550781 230.21659668 8.33789062 229.58764648 C13.87215172 226.39717366 19.39409569 223.18712418 24.8984375 219.9453125 C26.00687012 219.29377197 27.11530273 218.64223145 28.25732422 217.97094727 C30.37837494 216.7226222 32.49728476 215.47065051 34.61376953 214.21459961 C35.55591309 213.6603833 36.49805664 213.10616699 37.46875 212.53515625 C38.29826172 212.044104 39.12777344 211.55305176 39.98242188 211.04711914 C42 210 42 210 44 210 C39.72276737 189.34861285 35.43134026 168.70310485 30.8125 148.125 C27.07604161 131.46507783 23.59268618 114.75979728 20.19287109 98.02783203 C19.33967443 93.83048916 18.48362959 89.63373484 17.625 85.4375 C17.48070557 84.73209076 17.33641113 84.02668152 17.18774414 83.29989624 C14.88551578 72.06950232 12.4452272 60.87365729 9.9375 49.6875 C7.38187168 38.28617661 4.87890892 26.87713674 2.5 15.4375 C2.24468506 14.21828857 1.98937012 12.99907715 1.72631836 11.74291992 C1.4969458 10.63021729 1.26757324 9.51751465 1.03125 8.37109375 C0.83080078 7.40099365 0.63035156 6.43089355 0.42382812 5.43139648 C0 3 0 3 0 0 Z " fill="#FEFEFE" transform="translate(844,356)"/>
</svg>
